<mxfile host="app.diagrams.net" modified="2023-10-16T01:53:10.081Z" agent="Mozilla/5.0 (Windows NT 10.0; Win64; x64; rv:109.0) Gecko/20100101 Firefox/118.0" version="22.0.4" etag="d_hHc4DeyvzJhMZHeZu_" type="github">
  <diagram name="Page-1" id="B_aaUAYDcFN9zoQLiZQ3">
    <mxGraphModel>
      <root>
        <mxCell id="0" />
        <mxCell id="1" parent="0" />
      </root>
    </mxGraphModel>
  </diagram>
</mxfile>
